<svg version="1.2" xmlns="http://www.w3.org/2000/svg" viewBox="0 0 32 32" width="32" height="32">
	<title>wallpaperEngineIcon-svg</title>
	<style>
		.s0 { fill: none;stroke: #45b3ff;stroke-linejoin: round;stroke-width: 2 } 
		.s1 { fill: none;stroke: #45b3ff;stroke-linecap: round;stroke-linejoin: round;stroke-width: 2 } 
	</style>
	<g id="Layer 1">
		<path id="Layer" fill-rule="evenodd" class="s0" d="m13.9 3.4q0-0.1 0.1-0.2 0 0 0.1-0.1 0 0 0.1-0.1 0.1 0 0.2 0h3.2q0.1 0 0.2 0 0.1 0.1 0.1 0.1 0.1 0.1 0.1 0.1 0.1 0.1 0.1 0.2l0.7 2.7q0 0.1 0 0.2 0.1 0 0.1 0.1 0.1 0 0.1 0 0.1 0.1 0.1 0.1 0.6 0.2 1.1 0.4 0.1 0.1 0.1 0.1 0.1 0 0.2 0 0 0 0.1 0 0 0 0.1-0.1l2.8-1.3q0-0.1 0.1-0.1 0.1 0 0.2 0 0 0 0.1 0.1 0.1 0 0.1 0l2.4 2.4q0 0 0 0.1 0.1 0.1 0.1 0.1 0 0.1 0 0.2 0 0.1-0.1 0.1l-1.3 2.8q-0.1 0.1-0.1 0.1 0 0.1 0 0.1 0 0.1 0 0.2 0 0 0.1 0.1 0.1 0.4 0.3 0.8 0.1 0.2 0.3 0.3l3 1q0 0 0.1 0.1 0.1 0 0.1 0.1 0.1 0 0.1 0.1 0 0.1 0 0.2v3.2q0 0.1 0 0.2 0 0.1-0.1 0.1 0 0.1-0.1 0.1-0.1 0.1-0.1 0.1l-3 1q0 0-0.1 0 0 0.1-0.1 0.1 0 0.1 0 0.1-0.1 0.1-0.1 0.1 0 0.1-0.1 0.2 0 0.1-0.1 0.2 0 0.1 0 0.2-0.1 0.1-0.1 0.2-0.1 0.1-0.1 0.1 0 0.1 0 0.2 0 0 0 0.1 0 0 0.1 0.1l1.3 2.8q0.1 0 0.1 0.1 0 0.1 0 0.2 0 0-0.1 0.1 0 0.1 0 0.1l-2.4 2.4q0 0-0.1 0-0.1 0.1-0.1 0.1-0.1 0-0.2 0-0.1 0-0.1-0.1l-2.8-1.3q-0.1-0.1-0.1-0.1-0.1 0-0.1 0-0.1 0-0.2 0 0 0-0.1 0.1-0.4 0.2-0.8 0.3 0 0-0.1 0.1 0 0-0.1 0 0 0.1-0.1 0.1 0 0.1 0 0.1l-1 3q0 0-0.1 0.1 0 0.1-0.1 0.1 0 0.1-0.1 0.1-0.1 0-0.2 0h-3.2q-0.1 0-0.2 0-0.1 0-0.1-0.1-0.1 0-0.1-0.1-0.1-0.1-0.1-0.1l-1-3q0 0 0-0.1-0.1 0-0.1-0.1-0.1 0-0.1 0-0.1-0.1-0.1-0.1-0.1 0-0.3-0.1-0.1-0.1-0.3-0.1-0.1-0.1-0.2-0.1-0.2-0.1-0.3-0.2-0.1 0-0.1 0-0.1 0-0.2 0 0 0-0.1 0 0 0-0.1 0l-2.4 1.5q-0.1 0-0.2 0.1-0.1 0-0.2 0 0 0-0.1-0.1-0.1 0-0.2-0.1l-2.2-2.2q-0.1-0.1-0.1-0.2-0.1-0.1-0.1-0.1 0-0.1 0-0.2 0.1-0.1 0.1-0.2l1.5-2.4q0-0.1 0-0.1 0-0.1 0-0.1 0-0.1 0-0.2 0 0 0-0.1-0.1-0.2-0.2-0.3-0.1-0.2-0.1-0.4-0.1-0.1-0.2-0.3 0-0.2-0.1-0.4 0 0-0.1-0.1 0 0 0-0.1-0.1 0-0.1-0.1-0.1 0-0.2 0l-2.7-0.7q-0.1 0-0.2-0.1 0 0-0.1-0.1 0 0-0.1-0.1 0-0.1 0-0.2v-3.2q0-0.1 0-0.2 0.1-0.1 0.1-0.1 0.1-0.1 0.1-0.1 0.1-0.1 0.2-0.1l2.7-0.7q0.1 0 0.2 0 0-0.1 0.1-0.1 0-0.1 0-0.1 0.1-0.1 0.1-0.1 0.2-0.7 0.6-1.4 0-0.1 0-0.1 0-0.1 0-0.2 0 0 0-0.1 0 0 0-0.1l-1.5-2.4q0-0.1-0.1-0.2 0-0.1 0-0.2 0 0 0.1-0.1 0-0.1 0.1-0.2l2.2-2.2q0.1-0.1 0.2-0.1 0.1-0.1 0.1-0.1 0.1 0 0.2 0 0.1 0.1 0.2 0.1l2.4 1.5c0.1 0 0.3 0.1 0.5 0q0.2-0.1 0.3-0.2 0.2-0.1 0.4-0.1 0.1-0.1 0.3-0.2 0.2 0 0.4-0.1 0 0 0.1-0.1 0 0 0.1 0 0-0.1 0.1-0.1 0-0.1 0-0.2c0 0 0.7-2.7 0.7-2.7z"/>
		<path id="Layer" class="s1" d="m16 21c-2.8 0-5-2.2-5-5 0-2.8 2.2-5 5-5 2.8 0 5 2.2 5 5 0 2.8-2.2 5-5 5z"/>
	</g>
</svg>